<?xml version="1.0" encoding="UTF-8"?>
<svg id="Calque_2" data-name="Calque 2" xmlns="http://www.w3.org/2000/svg" viewBox="0 0 413.21 141.13">
  <defs>
    <style>
      .cls-1 {
        fill: #659933;
      }

      .cls-2 {
        fill: #dadada;
      }
    </style>
  </defs>
  <g id="Calque_1-2" data-name="Calque 1">
    <path class="cls-1" d="m0,141.12L37.65,36.09h28.05l36.77,105.03h-24.9l-7.25-21.02H31.79l-7.1,21.02H0ZM68.7,26.35h-16.63L29.08,2.7h20.58l19.04,23.66Zm-31.49,74.41h27.47l-11.21-36.69c-.39-1.32-.76-2.53-1.1-3.62-.34-1.1-.68-2.38-1.03-3.85h-.59c-.29,1.22-.61,2.42-.95,3.59-.34,1.17-.73,2.44-1.17,3.81l-11.43,36.77Z"/>
    <g>
      <path class="cls-2" d="m129.22,71.12l-24.12,70.02h-17.87l-23.83-70.02h16.8l14.79,47.07c.36,1.11.63,2.06.83,2.86.2.8.42,1.75.68,2.86h.29c.26-1.17.47-2.16.63-2.95.16-.8.42-1.78.78-2.95l14.7-46.88h16.31Z"/>
      <path class="cls-2" d="m179.51,141.13h-41.99v-70.02h40.38v13.09h-24.61v15.23h22.9v12.99h-22.9v15.62h26.22v13.09Z"/>
      <path class="cls-2" d="m252.76,141.13h-15.92l-28.86-43.21c-.81-1.3-1.5-2.43-2.05-3.39-.55-.96-.98-1.77-1.27-2.42h-.2c.06,1.24.11,2.8.15,4.69.03,1.89.05,4.1.05,6.64v37.7h-14.89v-70.02h16.99l27.78,41.85c.59.94,1.16,1.9,1.73,2.86.57.96,1.1,1.91,1.59,2.86h.2c-.07-.81-.11-2.03-.15-3.64s-.05-3.61-.05-5.98v-37.94h14.89v70.02Z"/>
      <path class="cls-2" d="m283.57,141.13h-15.77v-70.02h15.77v70.02Z"/>
      <path class="cls-2" d="m355.39,141.13h-17.72l-10.4-18.95c-1.4-2.57-2.74-4.39-4.03-5.47-1.29-1.07-2.86-1.61-4.71-1.61h-4.25v26.03h-15.77v-70.02h25c8.69,0,15.11,1.81,19.26,5.42s6.23,8.43,6.23,14.45c0,4.39-1.3,8.39-3.91,11.99-2.6,3.6-6.25,6.08-10.94,7.45v.2c1.79.72,3.47,1.91,5.03,3.59,1.56,1.68,3.21,4.01,4.93,7.01l11.28,19.92Zm-41.11-58.01v19.87h6.84c3.61,0,6.4-.95,8.35-2.86s2.93-4.44,2.93-7.59-.91-5.35-2.73-6.98c-1.82-1.63-4.57-2.44-8.25-2.44h-7.13Z"/>
    </g>
    <g>
      <path class="cls-2" d="m79.17,48.39v22.8h-15.77V1.17h24.37c8.72,0,15.37,1.9,19.95,5.71,4.57,3.81,6.86,9.44,6.86,16.89s-2.56,13.79-7.69,18.12-12,6.49-20.63,6.49h-7.08Zm0-35.11v23h6.59c3.91,0,6.92-1.03,9.03-3.08,2.12-2.05,3.17-5,3.17-8.84,0-3.55-1.03-6.28-3.1-8.2-2.07-1.92-5.02-2.88-8.86-2.88h-6.84Z"/>
      <path class="cls-2" d="m180.73,71.19h-17.72l-10.4-18.95c-1.4-2.57-2.74-4.39-4.03-5.47-1.29-1.07-2.86-1.61-4.71-1.61h-4.25v26.03h-15.77V1.17h25c8.69,0,15.11,1.81,19.26,5.42s6.23,8.43,6.23,14.45c0,4.39-1.3,8.39-3.91,11.99-2.6,3.6-6.25,6.08-10.94,7.45v.2c1.79.72,3.47,1.91,5.03,3.59,1.56,1.68,3.21,4.01,4.93,7.01l11.28,19.92Zm-41.11-58.01v19.87h6.84c3.61,0,6.4-.95,8.35-2.86s2.93-4.44,2.93-7.59-.91-5.35-2.73-6.98c-1.82-1.63-4.57-2.44-8.25-2.44h-7.13Z"/>
      <path class="cls-2" d="m218.23,72.41c-10.09,0-18.38-3.26-24.85-9.79-6.48-6.53-9.72-15.03-9.72-25.51,0-11.07,3.29-20.02,9.86-26.86,6.58-6.84,15.19-10.25,25.83-10.25,10.06,0,18.25,3.27,24.58,9.81,6.33,6.54,9.5,15.17,9.5,25.88s-3.28,19.87-9.84,26.61c-6.56,6.74-15.01,10.11-25.37,10.11Zm.29-13.82c5.5,0,9.93-1.94,13.28-5.83,3.35-3.89,5.03-9.29,5.03-16.19s-1.63-12.79-4.88-16.8c-3.26-4-7.6-6.01-13.04-6.01s-10.11,2.06-13.53,6.18c-3.42,4.12-5.13,9.56-5.13,16.33s1.71,12.3,5.13,16.31c3.42,4,7.8,6.01,13.14,6.01Z"/>
      <path class="cls-2" d="m299.14,49.85c0,7.06-2.1,12.59-6.3,16.58-4.2,3.99-9.98,5.98-17.33,5.98-3,0-6-.53-9.01-1.59-3.01-1.06-6.11-3.08-9.3-6.08l9.33-10.25c1.3,1.5,2.66,2.6,4.08,3.3,1.42.7,2.95,1.03,4.61,1,2.6-.07,4.62-.88,6.05-2.44,1.43-1.56,2.15-3.97,2.15-7.23V1.17h15.72v48.68Z"/>
      <path class="cls-2" d="m355.49,71.19h-41.99V1.17h40.38v13.09h-24.61v15.23h22.9v12.99h-22.9v15.62h26.22v13.09Z"/>
      <path class="cls-2" d="m413.21,14.01h-18.75v57.18h-15.82V14.01h-18.75V1.17h53.32v12.84Z"/>
    </g>
    <rect class="cls-2" x="76.07" y="10.54" width="4.13" height="60.89"/>
  </g>
</svg>