<?xml version="1.0" encoding="UTF-8"?>
<svg id="Calque_2" data-name="Calque 2" xmlns="http://www.w3.org/2000/svg" viewBox="0 0 143.26 163.02">
  <defs>
    <style>
      .cls-1 {
        fill: #fff;
      }
    </style>
  </defs>
  <g id="Calque_1-2" data-name="Calque 1">
    <path class="cls-1" d="m67.83,4.6C35.08,23.43-9,37.67,1.61,79.72c10.15,40.22,33.69,58.39,66.21,75.11,59.33,30.5,24.88-30.78,66.21-75.11C166.4,45.01,106.17-17.45,67.83,4.6Zm45.67,75.7c-27.73,29.74-4.62,70.85-44.42,50.39-21.82-11.22-37.61-23.41-44.42-50.39-7.12-28.21,22.46-37.76,44.42-50.39,25.73-14.79,66.13,27.11,44.42,50.39Z"/>
    <path class="cls-1" d="m98.6,80.73c-17.86,19.16-2.97,45.64-28.62,32.46-14.06-7.22-24.23-15.08-28.62-32.46-4.59-18.17,14.47-24.32,28.62-32.46,16.57-9.53,42.6,17.46,28.62,32.46Z"/>
  </g>
</svg>