<?xml version="1.0" encoding="utf-8"?>
<!-- Generator: Adobe Illustrator 24.3.0, SVG Export Plug-In . SVG Version: 6.00 Build 0)  -->
<svg version="1.1" xmlns="http://www.w3.org/2000/svg" xmlns:xlink="http://www.w3.org/1999/xlink" x="0px" y="0px"
	 viewBox="0 0 769.9 306.3" style="enable-background:new 0 0 769.9 306.3;" xml:space="preserve">
<style type="text/css">
	.st0{fill:#1D1D1B;}
	.st1{fill:#55B0E3;}
	.st2{fill:#FBBD1D;}
	.st3{fill:#387F32;}
	.st4{fill:#74A530;}
	.st5{fill:#B2CB2E;}
</style>
<g id="Typo">
</g>
<g id="Logo">
	<g>
		<g>
			<path class="st0" d="M124.4,253.9l-4.3,7.4c-7.8,3.2-14.9,5.4-21.1,6.6c-6.2,1.2-14,1.8-23.4,1.8c-13.3,0-25.1-1.6-35.3-4.9
				c-8-2.6-14.8-6.1-20.4-10.4c-5.6-4.3-9.9-9-12.9-14.1C2.3,232.6,0,224.3,0,215.3c0-15.3,6.8-27.8,20.3-37.5
				c13.5-9.7,32.6-14.6,57.3-14.6c8.5,0,16.1,0.5,22.8,1.5c6.7,1,14.6,2.7,23.5,5.2l0.5,0.9c-1,2.3-1.8,5.2-2.4,8.6
				c-0.9,5.5-1.5,10.6-1.8,15.2h-7.3c-0.1-5.3-0.4-9.6-0.9-12.8c-4.2-3.4-8.9-5.9-14.2-7.6c-5.2-1.7-11.9-2.5-20.1-2.5
				c-14.8,0-26.6,3.6-35.4,10.8c-8.9,7.2-13.3,17.3-13.3,30.2c0,7.8,1.5,14.7,4.5,20.5c3,5.8,7,10.7,11.9,14.5c5,3.8,9.9,6.6,15,8.4
				c6.8,2.3,15.1,3.5,24.9,3.5c6.4,0,12.5-0.6,18.2-1.7c5.7-1.1,11.9-3,18.6-5.8L124.4,253.9z"/>
			<path class="st0" d="M242.2,261.4v5.7c-9.4-0.2-15.6-0.3-18.5-0.3c-1.9,0-8.3,0.1-19.2,0.3l-0.9-0.7l1.3-15.3
				c0.2-2.7,0.3-5.9,0.3-9.6v-14.2c0-6.6-1.4-11.2-4.3-13.8c-2.9-2.6-7-3.8-12.3-3.8c-3.9,0-7.3,0.8-10.2,2.3
				c-2.9,1.5-5.1,3.6-6.6,6.1c-0.6,0.9-0.8,2.9-0.8,6v9.2c0,3.8,0.1,8.6,0.2,14.5c0.2,5.9,0.4,9.4,0.6,10.4c0.2,0.6,0.4,1,0.8,1.3
				c0.3,0.3,0.8,0.5,1.3,0.7c0.9,0.3,2.4,0.6,4.4,0.7l7.3,0.3v5.7c-17.1-0.3-26.7-0.5-28.6-0.5l-23.3,0.5v-5.7
				c5.6-0.2,8.9-0.4,9.9-0.6c1-0.2,1.7-0.5,2.2-0.8c0.5-0.4,0.8-0.9,1.1-1.6c0.4-1.5,0.7-6.1,0.9-13.9c0.2-7.7,0.2-14.6,0.2-20.7
				v-23.7c0-7.8-0.3-14.9-0.8-21.3c-0.2-3.3-0.5-5.2-0.8-5.8c-0.3-0.3-0.6-0.6-1-0.8c-0.7-0.3-1.9-0.6-3.5-0.8
				c-1.1-0.1-3.8-0.3-8.2-0.4v-5.4c8.9-0.8,15.3-1.6,19.3-2.3c4-0.7,9.7-1.9,17.2-3.8l2.1,0.9l-0.8,17.4c-0.3,8.8-0.4,17-0.4,24.5v7
				l16.6-10.7c4.4-1.3,8.9-2,13.7-2c5,0,9.4,0.6,13.2,1.9c3.9,1.2,6.9,2.9,9.1,4.9c2.2,2,3.8,4.3,4.7,6.7c0.9,2.4,1.4,5.6,1.4,9.5
				c0,1.3-0.1,5.1-0.4,11.4c-0.2,4.6-0.3,8.4-0.3,11.4c0,9,0.2,14.3,0.7,15.9c0.3,1.1,1,1.8,2.1,2.3
				C232.7,261,236.2,261.3,242.2,261.4z"/>
			<path class="st0" d="M334.4,255.8l-4.1,7.1c-5.1,2.4-10.5,4.2-15.9,5.4c-4.1,0.8-8.7,1.2-13.9,1.2c-6.2,0-11.7-0.6-16.4-1.7
				c-4.7-1.1-8.8-2.7-12.1-4.6c-3.4-1.9-6.3-4.3-8.9-7.1c-2.5-2.8-4.4-6.1-5.5-9.8c-1.1-3.7-1.7-7.7-1.7-12.1
				c0-6.4,1.1-12.1,3.3-17.1c1.5-3.5,3.3-6,5.3-7.6c1.3-1,4.5-2.8,9.8-5.5c5.3-2.7,9.1-4.4,11.5-5.3c4.4-1.5,9.6-2.3,15.5-2.3
				c8.4,0,15.3,1.4,20.7,4.1c5.4,2.7,9.2,6.2,11.4,10.4c2.2,4.2,3.3,9.4,3.3,15.4c0,1.4-0.1,2.7-0.2,3.9c-1.6,0.4-4,0.8-7.2,1.3
				c-4.3,0.6-7.2,1-8.7,1c-4.7,0.3-10.9,0.5-18.6,0.5c-7.7,0-12,0.1-12.8,0.1c-0.8,0-1.7,0.1-2.7,0.1h-6.2
				c0.5,7.7,3.6,13.8,9.2,18.2c5.6,4.5,12.6,6.7,20.9,6.7c3.6,0,6.9-0.3,9.9-0.9c3-0.6,7-1.9,11.9-3.8L334.4,255.8z M312,225.6
				c0.2-7.7-1.1-13.1-4-16.2c-3-3.1-6.9-4.6-11.7-4.6c-4.9,0-8.9,1.6-12.1,4.8c-3.3,3.2-4.8,8.6-4.5,16c3.7,0.4,9.9,0.7,18.5,0.7
				C303.7,226.2,308.3,226,312,225.6z"/>
			<path class="st0" d="M403.3,261.4v5.7c-7.1-0.2-15-0.4-23.7-0.4c-9.7,0-19.8,0.1-30.3,0.4v-5.7c4.9,0,8.3-0.3,10.2-0.8
				c0.9-0.2,1.5-0.7,2-1.2c0.6-0.9,1-2.7,1-5.2l0.4-6.5c0.1-1.4,0.1-3.6,0.1-6.6v-9.5c0-4.3-0.2-9.6-0.5-15.7
				c-0.2-3.1-0.5-4.9-0.8-5.3c-0.3-0.4-0.9-0.7-1.7-0.9c-1.2-0.3-4.8-0.6-10.7-0.7v-5.7c11.5-1.5,19-2.6,22.6-3.4
				c3.6-0.7,7.7-1.9,12.2-3.5l2.6,0.9l-0.2,14.7c4.1-3.3,7.2-6,9.4-8.1c3.2-3,5.7-4.9,7.3-5.8c2.2-1.2,5.2-1.8,8.9-1.8
				c2.3,0,4.4,0.3,6.3,0.9l-0.7,10.4c-0.2,5.6-0.3,8.9-0.4,9.7l-4,0.9c-1.6-1.6-3.1-2.7-4.5-3.4c-2.3-1-4.9-1.5-7.6-1.5
				c-3.7,0-6.9,0.9-9.6,2.7c-2.7,1.8-4.3,3.6-4.8,5.4c-0.3,1.1-0.4,5.2-0.4,12.3v7.3l0.2,9.9c0.1,3.7,0.2,6,0.5,6.9
				c0.3,0.9,0.9,1.5,1.9,2c1,0.5,3.2,0.8,6.5,1L403.3,261.4z"/>
			<path class="st0" d="M422.8,211.5v-3.3l8.5-4.1c1.4-0.7,2.7-1.4,4-2.2v-9.8c0-3.5-0.3-7.8-0.8-13c6.1-1.6,10-2.6,11.9-3.1
				c0.3-0.1,4.3-1.5,12-4.3l2.4,1.5l-0.9,7.6l-0.7,8.4l-0.8,12.8h3.1c8.3,0,14.7-0.2,18.9-0.7l-1.6,9.8c-0.8,0.1-1.4,0.1-2.1,0.1
				l-9.2-0.1h-9.1v24.4c0,7.5,0.1,11.9,0.3,13.3c0.2,2.3,1.3,4.1,3.2,5.4c1.9,1.3,4.5,1.9,8,1.9c2.1,0,3.8,0,5.1-0.1
				c1.3-0.1,2.9-0.4,4.9-0.7l1.5,3l-3.4,2.6c-2.8,2.2-5.2,4.1-7.3,5.8c-2.5,0.8-4.6,1.4-6.6,1.6c-1.9,0.3-3.9,0.4-5.9,0.4
				c-7.3,0-13-1.4-17.2-4.3c-4.2-2.9-6.3-6.5-6.3-10.8l0.5-24.1v-18h-2.5C429.3,211.3,426,211.3,422.8,211.5z"/>
			<path class="st0" d="M492.8,244.1h7.5c0.3,5.4,0.6,8.9,0.9,10.3c2.8,2.7,5.9,4.7,9.3,5.9c3.4,1.3,7.3,1.9,11.7,1.9
				c5.9,0,10.4-1.1,13.6-3.3c3.1-2.2,4.7-4.8,4.7-8c0-2-0.5-3.7-1.6-5.1c-1-1.3-3.1-2.6-6.3-3.7c-2.4-0.7-7.1-1.6-14.1-2.8
				c-6.9-1.2-12.2-2.5-15.8-3.9s-6.4-3.5-8.4-6.3c-2-2.8-3-6.1-3-9.8c0-6.7,3.3-12.3,9.8-16.7c6.5-4.4,15.9-6.7,28.2-6.7
				c5.1,0,9.8,0.3,14,1c4.3,0.7,8.1,1.7,11.6,3.1l0.3,0.7c-0.4,1.7-0.7,3.4-0.8,5.2c-0.2,1.8-0.5,5.9-0.8,12.4l-7.3-0.1
				c-0.1-0.5-0.2-1.4-0.3-2.7c-0.2-2.2-0.6-4.3-1.1-6.4c-1.9-2-4.3-3.4-7.2-4.4c-2.8-1-6.2-1.5-10-1.5c-5.3,0-9.4,0.9-12.3,2.8
				c-2.9,1.9-4.4,4.1-4.4,6.6c0,2.6,0.7,4.6,2,5.8c1.3,1.3,3.3,2.2,5.8,2.8c2.6,0.6,7.3,1.4,14.3,2.4c6.9,1,11.6,1.8,14,2.5
				c3.5,1,6.2,2.3,8.3,3.9c2.1,1.6,3.7,3.5,4.8,5.8c1.1,2.3,1.6,4.9,1.6,7.6c0,7.3-3.6,13.4-10.9,18.3c-7.2,5-17.4,7.4-30.6,7.4
				c-4.4,0-8.7-0.3-12.8-0.9c-4.1-0.6-9.2-1.7-15.2-3.3l-1-1.1c0.5-3.7,0.8-6.4,0.9-8L492.8,244.1z"/>
			<path class="st0" d="M655.7,255.8l-4.1,7.1c-5.1,2.4-10.5,4.2-15.9,5.4c-4.1,0.8-8.7,1.2-13.9,1.2c-6.2,0-11.7-0.6-16.4-1.7
				c-4.7-1.1-8.8-2.7-12.1-4.6c-3.4-1.9-6.3-4.3-8.8-7.1c-2.5-2.8-4.4-6.1-5.5-9.8c-1.1-3.7-1.7-7.7-1.7-12.1
				c0-6.4,1.1-12.1,3.3-17.1c1.5-3.5,3.3-6,5.3-7.6c1.3-1,4.5-2.8,9.8-5.5c5.3-2.7,9.1-4.4,11.5-5.3c4.4-1.5,9.6-2.3,15.5-2.3
				c8.4,0,15.3,1.4,20.7,4.1c5.4,2.7,9.2,6.2,11.4,10.4c2.2,4.2,3.3,9.4,3.3,15.4c0,1.4-0.1,2.7-0.2,3.9c-1.6,0.4-4,0.8-7.2,1.3
				c-4.3,0.6-7.2,1-8.7,1c-4.7,0.3-10.9,0.5-18.6,0.5c-7.7,0-12,0.1-12.8,0.1c-0.8,0-1.7,0.1-2.7,0.1h-6.2
				c0.5,7.7,3.6,13.8,9.2,18.2c5.6,4.5,12.6,6.7,20.9,6.7c3.6,0,6.9-0.3,9.9-0.9c3-0.6,7-1.9,11.9-3.8L655.7,255.8z M633.3,225.6
				c0.2-7.7-1.1-13.1-4-16.2c-3-3.1-6.9-4.6-11.7-4.6c-4.9,0-8.9,1.6-12.1,4.8c-3.3,3.2-4.8,8.6-4.5,16c3.7,0.4,9.9,0.7,18.5,0.7
				C624.9,226.2,629.6,226,633.3,225.6z"/>
			<path class="st0" d="M670.8,304.3c1.1-3.6,1.8-6,2.1-7.4l1.4-7.4l2.4-0.4c1.6,1.3,3.4,2.4,5.4,3.4c2.4,0.8,5.1,1.2,7.9,1.2
				c3.3,0,6.3-0.9,9-2.6c2.8-1.7,5.8-5.5,9.2-11.4l3.8-7l-30.5-60.7c-1.8-3.6-3.5-5.8-5.2-6.7c-1.6-0.9-4.7-1.3-9.3-1.2v-5.7
				c6.2,0.2,13.7,0.3,22.6,0.3c10.5,0,19.9-0.1,28.2-0.3v5.7h-2.2c-3.9,0-6.6,0.3-8.1,1c-0.9,0.5-1.4,1.1-1.4,1.9
				c0,0.9,0.3,1.9,0.9,3.2l4.6,9.9l13.8,27.8l8.3-15.1c8.1-15,12.1-23.7,12.1-26c0-0.5-0.2-0.9-0.5-1.2c-0.4-0.4-1.2-0.7-2.4-0.9
				c-2.3-0.3-5.3-0.5-9-0.6v-5.7c4,0.2,9.1,0.3,15.2,0.3c7.4,0,14.3-0.1,20.7-0.3v5.7h-1.5c-1.7,0-3.3,0.2-4.8,0.7
				c-0.9,0.3-1.8,0.8-2.5,1.5c-0.7,0.7-2.5,3.4-5.3,8c-3.7,6.1-6.7,11.2-8.9,15.2c-7,12.4-11.5,20.3-13.4,23.8l-15.2,28.7
				c-4.6,8.7-9.6,14.9-14.8,18.6c-5.2,3.7-11.5,5.6-19,5.6c-2.4,0-4.7-0.1-6.7-0.4C675.7,305.6,673.4,305.1,670.8,304.3z"/>
		</g>
		<g>
			<path class="st1" d="M363.8,129.5l-0.2,0.1c-3,1.2-71.7,26.5-127.9-24.1c21.9,0,200.5-0.4,200.5-0.4L363.8,129.5z"/>
			<path class="st2" d="M394.4,33.7c6,9.2,10.7,15.7,15,21.3l1.6,2l2.9-0.9c24.2-7.5,41-11.3,41.2-11.3l0.2,0
				c5.3-1,10.5-1.8,15.6-2.3c0-0.1,0-0.2,0-0.3C471,18.9,451.9,0,428.3,0c-17.8,0-33,10.7-39.4,26C390.7,28.4,392.5,30.9,394.4,33.7
				z"/>
			<path class="st3" d="M199.5,43.8c9.2-2.3,17.8-0.2,26.4,6.3c38.3,28.9,52,17.4,66.5,5.1l3.3-2.7c4.6-3.7,9.1-8,13.9-12.5
				c15.2-14.3,31-29,47.3-27.1c10.6,1.2,20.8,9.4,31,24.9c5.5,8.4,10.5,15.6,15.4,21.8c-10.6,3.5-22.2,7.6-34.2,12.3
				c-55.1,21.8-78.6,14.4-114.2,3.2c0,0-6.9-2.1-7.1-2.2c-2.7-1-49.8-17.7-92,10.5C165.8,68,181.6,48.2,199.5,43.8z"/>
			<path class="st4" d="M299,98.4c0,0-132.6-0.9-148.9-1C192.1,60,243,79,245.2,79.9l0.1,0l7.3,2.3c35.8,11.3,61.7,19.4,119.3-3.4
				c12.8-5.1,25.2-9.4,36.5-13c12.2,14.2,25,23.4,45.9,32.6H299z"/>
			<path class="st5" d="M474.3,98.4c-29-10.9-44.1-19.7-58-35c23.7-7.4,40.3-11.1,40.6-11.2c80.8-15.4,142.7,29.2,162.9,46.2H474.3z
				"/>
		</g>
	</g>
</g>
</svg>
